<?xml version="1.0" encoding="utf-8"?>
<!-- Generator: Adobe Illustrator 22.0.1, SVG Export Plug-In . SVG Version: 6.00 Build 0)  -->
<svg version="1.1" id="Calque_1" xmlns="http://www.w3.org/2000/svg" xmlns:xlink="http://www.w3.org/1999/xlink" x="0px" y="0px"
	 viewBox="0 0 432 432" style="enable-background:new 0 0 432 432;" xml:space="preserve">
<style type="text/css">
	.st0{fill:#957452;}
	.st1{fill:#88573C;}
	.st2{fill:#D6C49A;}
	.st3{fill:#E52627;}
	.st4{fill:#CDCCCC;}
	.st5{fill:#264395;}
	.st6{fill:#1E274A;}
	.st7{fill:#EC6625;}
	.st8{fill:#020203;}
	.st9{fill:#E52521;}
	.st10{fill:#808181;}
	.st11{fill:#FFE324;}
	.st12{fill:#3F4244;}
	.st13{fill:#009F4A;}
	.st14{fill:#343434;}
	.st15{fill:#78170E;}
	.st16{fill:#F0E9D5;}
	.st17{fill:#272531;}
	.st18{fill:#222B56;}
	.st19{fill:#9BD2CC;}
	.st20{fill:#83B143;}
	.st21{fill:#1B1B1B;}
	.st22{fill:#FFFFFF;}
	.st23{fill:#DDD6C3;}
	.st24{fill:#997F64;}
	.st25{fill:#77684B;}
	.st26{fill:#A89877;}
	.st27{fill:#B4B4B4;}
	.st28{fill:#DDCEBB;}
	.st29{fill:#9A2A1A;}
	.st30{fill:#5E1C0C;}
	.st31{fill:#F1CA43;}
	.st32{fill:#A57B46;}
	.st33{fill:#F18538;}
	.st34{fill:#F2AC64;}
	.st35{fill:#FAB42D;}
	.st36{fill:#46494E;}
	.st37{fill:#CF875E;}
	.st38{fill:#E7E6E6;}
	.st39{fill:#1A181D;}
	.st40{fill:#637644;}
	.st41{fill:#9F1E29;}
	.st42{fill:#F9B03D;}
	.st43{fill:#0D71B9;}
	.st44{fill:#E52629;}
	.st45{fill:#676767;}
	.st46{fill:#30358C;}
	.st47{fill:#9A9999;}
	.st48{fill:#3F4798;}
	.st49{fill:#2DABE3;}
	.st50{fill:#C1292E;}
	.st51{fill:#F2F2F2;}
	.st52{fill:#AA7C4C;}
	.st53{fill:#D6A573;}
	.st54{fill:#29ACE1;}
	.st55{fill:#88C05E;}
	.st56{fill:#F39323;}
	.st57{fill:#EB5B28;}
	.st58{fill:#B85965;}
	.st59{fill:#A67D52;}
	.st60{fill:#8C633A;}
	.st61{fill:#009245;}
	.st62{fill:#066938;}
	.st63{fill:#7D252D;}
	.st64{fill:#95D3E3;}
	.st65{fill:#603914;}
	.st66{fill:#EFC9AF;}
	.st67{fill:#D987B8;}
	.st68{fill:#8FC14D;}
	.st69{fill:#C69C6C;}
	.st70{fill:#2BADE1;}
	.st71{fill:#A4C958;}
	.st72{fill:#754D24;}
	.st73{fill:#35AE73;}
	.st74{fill:#E0B99E;}
	.st75{fill:#BDCCD4;}
	.st76{fill:#0C0D0D;}
	.st77{fill:#F4E152;}
	.st78{fill:#1E1911;}
	.st79{fill:#A1BD4F;}
	.st80{fill:#CBE6DC;}
	.st81{fill:#B5DCCE;}
	.st82{fill:#1F1D1B;}
	.st83{fill:#746458;}
	.st84{fill:#C7B29A;}
	.st85{fill:#998675;}
	.st86{fill:#428540;}
	.st87{fill:#E3E5E3;}
	.st88{fill:#161617;}
	.st89{fill:#1E1F1E;}
	.st90{fill:#474847;}
	.st91{fill:#191A19;}
	.st92{fill:#4B2C15;}
	.st93{fill:#92552A;}
	.st94{fill:#7EA847;}
	.st95{fill:#D59E2B;}
	.st96{fill:#807E79;}
	.st97{fill:#E5B744;}
	.st98{fill:#8EC045;}
	.st99{fill:#3B569A;}
	.st100{fill:#A1B7E0;}
	.st101{fill:#8FC9CC;}
	.st102{fill:#9ED1CA;}
	.st103{fill:#81AAA9;}
	.st104{fill:#E1783D;}
	.st105{fill:#64328A;}
	.st106{fill:#DEDEA5;}
	.st107{fill:#754997;}
	.st108{fill:#EE6F43;}
	.st109{fill:#A6CB67;}
	.st110{fill:#8FB7C0;}
	.st111{fill:#E2E1DF;}
	.st112{fill:#2C3E70;}
	.st113{fill:#D9BF96;}
	.st114{fill:#9C6941;}
	.st115{fill:#61605E;}
	.st116{fill:#9C9A99;}
	.st117{fill:#245F3D;}
	.st118{fill:#191713;}
	.st119{fill:#C39A62;}
	.st120{fill:#A17C4F;}
	.st121{fill:#F39200;}
	.st122{fill:#432918;}
	.st123{fill:#B17F4A;}
	.st124{fill:#FFCE1E;}
	.st125{fill:#BE1622;}
	.st126{fill:#3AAA35;}
	.st127{fill:#911825;}
	.st128{fill:#009FE3;}
	.st129{fill:#E94E1B;}
	.st130{fill:#FFCC03;}
	.st131{fill:#95C11F;}
	.st132{fill:#00A19A;}
	.st133{fill:#683C11;}
	.st134{fill:#878787;}
	.st135{fill:#634E42;}
	.st136{fill:#CBBBA0;}
	.st137{fill:#7B5B41;}
	.st138{fill:#493E36;}
	.st139{fill:#78A62C;}
	.st140{fill:#2C8535;}
	.st141{fill:#F9B233;}
	.st142{fill:none;}
	.st143{fill:#CA9E67;}
	.st144{fill:#E30613;}
	.st145{fill:#C6C6C6;}
	.st146{fill:#575756;}
	.st147{fill:#7B6A58;}
	.st148{fill:#A3C5D7;}
	.st149{fill:#332C25;}
	.st150{fill:#29235C;}
	.st151{fill:#E6332A;}
	.st152{fill:#738D93;}
	.st153{fill:#C87B31;}
	.st154{fill:#5BBCA7;}
	.st155{fill:#EF786F;}
	.st156{fill:#EE8D9E;}
	.st157{fill:#A74B56;}
	.st158{fill:#E72D7B;}
	.st159{fill:#E84138;}
	.st160{fill:#3B2315;}
	.st161{fill:#8EC044;}
	.st162{fill:#A1C74B;}
	.st163{fill:#231F20;}
	.st164{fill:#F6D9A7;}
	.st165{fill:#F4A5A6;}
	.st166{fill:#6E6F70;}
	.st167{fill:#F8AF41;}
	.st168{fill:#B79C19;}
	.st169{fill:#EFD101;}
	.st170{fill:#207A97;}
	.st171{fill:#20ACE3;}
	.st172{fill:#C51618;}
	.st173{fill:#C19446;}
	.st174{fill:#9E599F;}
	.st175{fill:#CD95C2;}
	.st176{fill:#F29A26;}
	.st177{fill:#FCCE8D;}
	.st178{fill:#F39B85;}
	.st179{fill:#E52628;}
	.st180{fill:#6BB52D;}
</style>
<g>
	<g>
		<path class="st8" d="M186.1,150.3c-38,0-38.1,57.5,0,57.5C224.1,207.8,224.1,150.3,186.1,150.3z M177.6,186.1
			c-16.6,0.3-1.2-28.8,8.4-20.4C192.8,171.3,185.7,185.9,177.6,186.1z M185.4,191.3c-0.1-3.3,7.3-9.4,10.2-7.1
			C201.9,189.2,185.6,199,185.4,191.3z"/>
		<path class="st8" d="M237.4,166.7c-27.2,0-27.2,41.1,0,41.1C264.6,207.8,264.6,166.7,237.4,166.7z M230.4,192.5
			c2.4-1.9,8.4,3.1,8.3,5.8C238.6,204.6,225.3,196.5,230.4,192.5z M245.1,194.1c-6.6-0.1-12.3-12-6.8-16.6
			C246,170.6,258.6,194.3,245.1,194.1z"/>
	</g>
	<g>
		<path class="st80" d="M184.7,70.1c0.3-3.8-5.1-4.9-8-2.9c-1.6,1.2-17,42.1-8.7,57.6c3.1,5.7,25.3,2.5,32.1-6.4
			C204.7,112.5,182.1,109,184.7,70.1z"/>
		<path class="st80" d="M220.5,69.3c-0.9-3.8,4.3-5.5,7.5-3.8c1.8,1,23.6,39.7,17.9,56c-2.1,6.1-24.6,5.5-32.8-2.4
			C207.6,113.7,229.4,107.5,220.5,69.3z"/>
	</g>
	<g>
		<path class="st81" d="M229.7,249.6c-4.4-0.3-7.9,1.2-11.1,3.7c0.3,0.6,4.1,31.9,17.4,23.5C247,270,238.6,253.7,229.7,249.6z
			 M230.6,266.1c-1.8,3.9-4.8,2.8-2.9-1.5c-5.2-3-3.8-5.9,1.1-3.1c1.4-4.7,4.6-3.6,2.9,1.6C238,266.2,235,268.3,230.6,266.1z"/>
		<path class="st81" d="M333.6,239.8c5.2-7.9-5.3-13.1-9.1-7.2c-4.6-5-29.7-31.2-34.3-32.1c0.1-8.1,1.1-15.7,3.6-22.5
			c9.5-26.3-8.1-68.3-44.2-72.9c-0.6-0.1-1.1-0.1-1.7-0.2c0.8,4.1,1.1,8.3,0.8,12.4c-0.5,5.7-2.2,10-8.1,11.4
			c-6.6,1.6-14.1,0.8-20.5-1.4c-4.3-1.5-9.8-4-10.3-9.1c-0.3-3.6,1.5-6.4,3.4-9.3c0.1-0.1,0.2-0.3,0.3-0.4
			c-4.4,1.2-8.5,2.5-12.1,3.6c1,1.8,1.5,3.8,1.1,6.1c-1,5.4-7.2,8.7-11.8,10.5c-5.9,2.3-13.8,4.1-20.1,2.2
			c-5.3-1.6-6.5-7.7-7.1-12.6c-0.3-2.3-0.4-4.6-0.4-7c-14,1.2-30.4,8.4-39,28.7c-13,30.8,2.7,51.5,8.9,76.1
			c-10.7-3.8-19.9-10.3-27.3-19.2c-3.4-4.2-10.9-0.1-9.8,4.9c-3.7,0.8-6.3,5.1-4.6,8.3c-3.9,2.7-1.6,10.1,3.7,10.4
			c14.7,0.8,25.7,14,40.2,16.4c-0.2,10.4-1.7,20.7-2.4,31c-2.4,35.3,21.7,47,43,44.8c-9.3,24-16,16.5,19.1,38.1
			c-3.7,8.9,3.4,20.9,10.6,14.7c29.6-25.2-8.1-28.7-18.1-41.5c-2.6-3.3,13.8-13.6,20.9-24.6c5.4,0.1,11.7,2.8,19.5,5.5
			c7.6,7.1,13.9,15.6,21.2,23c-7.9,9.3-31.1,17.6-5.2,35.3c4.6,3.2,9.1-2,8.4-6.5c-0.5-3.2-1-6.3-1.4-9.5
			c28.2-28.8,29.7-17.9,11.6-37c45.2-3.4,34.5-41.6,29.2-85.7c7.4,6.8,14.9,13.5,22.3,20.3c-2.5,11.1,5.8,11.3,8.5,9.3
			c3.7,2.7,8.2,0.7,9.1-3.2C336.5,250.5,340.1,243.8,333.6,239.8z M184,141c16.5,0,30.5,10.9,35.3,25.8c5.1-4.6,11.8-7.3,19.2-7.3
			c38,0,38.1,57.5,0,57.5c-11.2,0-20.9-6.4-25.7-15.8C206,209.6,195.6,215,184,215C135.1,215,135,141,184,141z M275.5,250.5
			c-0.9,5-10.1,13.3-20.2,11.5c-6.4-1.1-11.2-5.8-16.4-9.1c18.6,23.5-16.6,48.8-23.1,2.8c-5.5,5.1-10.5,11.2-19,8.7
			c-7.5-2.2-19.9-18.5-31.2-4.7c4.8,2,1.6,4.3,0.1,3.6c-2.2-1.1-4.6-1.9-7-2.4c-1.2-0.3-3.2-4.5,3.7-2.3c4.4-6.1,12.3-9.1,19.6-6.5
			c6.2,2.2,10.5,8.5,17.2,9.4c13.9,2,18.9-27.6,43.8-9.9c13.1,9.3,21.3,11.4,29.7-2.6c-4.3-2.8-0.6-4.6,0.7-3.4
			c1.9,1.6,4.2,2.5,6.6,2.7C282.2,248.5,283.4,253.6,275.5,250.5z"/>
	</g>
	<g>
		<g>
			<path class="st8" d="M353.4,182.9c-2.4-0.1-4.1,1.2-4.8,2.7c-0.7-1.5-1.3-3-1.4-3.5c-0.4-1.9-0.6-3.9-0.9-5.8
				c-0.7-4.5-1.3-8.9-2-13.4c-0.2-1-1.4-1.2-2.1-0.9c-4.4,1.9-8.9,3.8-13.3,5.8c-2.1,1-4.2,1.7-3.9,4.4c0.1,1.2,1.1,2.4,1.6,3.5
				c1.1,2.4,2.1,4.9,3,7.4c1.1,3,2,6,2.7,9c-0.5-0.2-1-0.3-1.4-0.2c-1.6-0.3-3.3,0.2-4.2,1.7c-1.2,2-0.5,4.5,1.4,5.6
				c1.6,1,4.5,1.3,6.2,0.5c2.5-1.2,2.2-4.1,1.6-6.4c-0.1-0.3-0.3-0.6-0.5-0.7c-1.3-5.5-3.1-10.9-5.3-16.1c-0.3-0.6-2.2-4-2.1-4.5
				c0.3-1.4,2.9-1.9,4.1-2.4c3.3-1.4,6.5-2.9,9.8-4.3c0.9,6.1,1.6,12.2,2.8,18.2c0.8,3.7,2.8,7.9,7.1,8.4
				C357.6,192.6,359.8,183.2,353.4,182.9z"/>
			<path class="st8" d="M332.2,133.5c1.1,5,2.7,9.3,8.7,8.7c9.6-1.1,5.6-13.7-2.3-10.3c-1.2,0.5-2.4,1.4-3.2,2.6
				c-0.5-1.6-0.7-3.3-1.1-5c-1.1-5.8-1.7-11.7-1.9-17.6c0-1.5-1.8-1.8-2.7-0.7c-2.6,3.4-5.9,5.5-10,6.5c-1.8,0.4-1,3.2,0.8,2.7
				c3.6-0.9,6.7-2.6,9.2-5C330.1,121.4,330.9,127.5,332.2,133.5z"/>
		</g>
		<g>
			<path class="st8" d="M78.6,168.7c2.4-0.1,4.1,1.2,4.8,2.7c0.7-1.5,1.3-3,1.4-3.5c0.4-1.9,0.6-3.9,0.9-5.8c0.7-4.5,1.3-8.9,2-13.4
				c0.2-1,1.4-1.2,2.1-0.9c4.4,1.9,8.9,3.8,13.3,5.8c2.1,1,4.2,1.7,3.9,4.4c-0.1,1.2-1.1,2.4-1.6,3.5c-1.1,2.4-2.1,4.9-3,7.4
				c-1.1,3-2,6-2.7,9c0.5-0.2,1-0.3,1.4-0.2c1.6-0.3,3.3,0.2,4.2,1.7c1.2,2,0.5,4.5-1.4,5.6c-1.6,1-4.5,1.3-6.2,0.5
				c-2.5-1.2-2.2-4.1-1.6-6.4c0.1-0.3,0.3-0.6,0.5-0.7c1.3-5.5,3.1-10.9,5.3-16.1c0.3-0.6,2.2-4,2.1-4.5c-0.3-1.4-2.9-1.9-4.1-2.4
				c-3.3-1.4-6.5-2.9-9.8-4.3c-0.9,6.1-1.6,12.2-2.8,18.2c-0.8,3.7-2.8,7.9-7.1,8.4C74.4,178.4,72.2,169,78.6,168.7z"/>
			<path class="st8" d="M99.8,119.3c-1.1,5-2.7,9.3-8.7,8.7c-9.6-1.1-5.6-13.7,2.3-10.3c1.2,0.5,2.4,1.4,3.2,2.6
				c0.5-1.6,0.7-3.3,1.1-5c1.1-5.8,1.7-11.7,1.9-17.6c0-1.5,1.8-1.8,2.7-0.7c2.6,3.4,5.9,5.5,10,6.5c1.8,0.4,1,3.2-0.8,2.7
				c-3.6-0.9-6.7-2.6-9.2-5C101.9,107.1,101.1,113.2,99.8,119.3z"/>
		</g>
	</g>
</g>
</svg>
